<?xml version="1.0" encoding="UTF-8"?>
<svg id="Layer_2" data-name="Layer 2" xmlns="http://www.w3.org/2000/svg" version="1.1" viewBox="0 0 60 60">
  <defs>
    <style>
      .cls-1 {
        fill: #b3b3b3;
      }

      .cls-1, .cls-2 {
        stroke-width: 0px;
      }

      .cls-2 {
        fill: #000;
      }
    </style>
  </defs>
  <g>
    <path class="cls-1" d="M9.1,49.8c-2.7,0-4.8-.8-6.2-2.3-2.1-2.3-2.3-5.7-2.1-8.2.6-7.2,3.3-13.6,5.7-19.3,1.3-3.1,2.6-6.1,3.2-8.6.1-.5,1.2-1.3,1.8-1.3s1.3.3,1.7.7c.6.6.8,1.6.7,2.6,0,.5-.4.7-.6.9s-.1.1-.2.1c-2.1,2.7-8.5,17.5-8.5,23.9s1.6,7.7,4.2,7.7,5.8-1.3,8.4-2.2c2-.7,3.2-1.2,3.9-1.2,1.3,0,2.3.7,3,1.2.9.7,1.2,1.7.9,2.7-.3.9-1.2,1.5-2.1,1.5s-.5,0-.8-.2h-.2c0,0,0-.3,0-.3-.2-.5-.7-.8-1.4-.8s-.9,0-1.4.3h-.1c-3.3,1.2-7.7,2.6-9.8,2.6Z"/>
    <path class="cls-2" d="M11.5,10.7c1.5,0,2.1,1.4,1.9,2.8,0,.4-.5.6-.6.8-2.2,2.7-8.6,17.6-8.6,24.2s1.6,8.2,4.7,8.2,10.7-3.4,12.3-3.4,2.1.6,2.6,1.1c1.7,1.4.5,3.3-.9,3.3s-.4,0-.6-.1c-.3-.8-1-1.1-1.8-1.1-.5,0-1,.1-1.6.3-1,.4-7.2,2.6-9.7,2.6-7.1,0-8.2-5.8-7.8-10,.9-11.2,7.1-20.7,8.9-27.8,0-.2.9-.9,1.4-.9M11.5,9.7c-.9,0-2.1.9-2.3,1.6-.6,2.5-1.9,5.5-3.2,8.6C3.6,25.6.9,32,.3,39.3c-.2,2.6,0,6.1,2.3,8.6,1.5,1.7,3.7,2.5,6.6,2.5s6.6-1.4,10-2.6h.1c.4-.2.9-.3,1.2-.3.7,0,.9.3.9.4l.2.4.4.2c.3.1.6.2,1,.2,1.1,0,2.1-.7,2.5-1.8.4-1.1,0-2.3-1-3.2-.7-.6-1.8-1.3-3.3-1.3s-1.9.4-4.1,1.2c-2.6.9-6.1,2.2-8.2,2.2-3.4,0-3.7-5.5-3.7-7.2,0-6.3,6.3-20.9,8.4-23.6,0,0,0,0,0,0,.2-.2.7-.6.8-1.2.2-1.2-.1-2.3-.8-3-.5-.6-1.2-.9-2.1-.9h0Z"/>
  </g>
  <g>
    <path class="cls-1" d="M40.5,48.9c-8.1,0-11.1-7.2-11.1-12.1,0-14.7,13.2-25,20.3-25s9.5,3.8,9.5,7.4-1.2,6.4-3.1,6.4h0c-.5,0-1-.1-1.5-.4l-.3-.2v-.3c1.1-6.7-.2-8.5-2.7-9.3-10.2,0-17.8,12.3-17.8,20.2s2.7,9.8,7.5,9.8,8.2-1.6,12.6-4.8h0s0,0,0,0c.1,0,.3,0,.5,0,.7,0,1.5.5,1.7,1.3.1.4.3,1.3-.9,2.3-.7.5-6.7,5-14.8,5Z"/>
    <path class="cls-2" d="M49.7,12.4c5.6,0,9,3.6,9,6.9s-.8,5.9-2.6,5.9-.8-.1-1.2-.4c1-6.3,0-8.9-3.2-9.9-10.3,0-18.4,12.2-18.4,20.7s3.3,10.3,8,10.3,9.7-2.6,12.9-4.9c0,0,.2,0,.3,0,.9,0,2.1,1.4.5,2.6-1.9,1.5-7.5,4.9-14.5,4.9s-10.6-6.6-10.6-11.6c0-14.6,13.1-24.5,19.8-24.5M49.7,11.4c-7.3,0-20.8,10.5-20.8,25.5s1,6,2.7,8.3c1.5,2,4.2,4.3,8.9,4.3,8.3,0,14.4-4.6,15.1-5.1,1.5-1.1,1.2-2.3,1.1-2.8-.3-.9-1.2-1.6-2.2-1.6s-.4,0-.7.1h-.1s-.1.1-.1.1c-4.2,3.1-8.4,4.7-12.3,4.7s-7-3.3-7-9.3,7.4-19.5,17.2-19.7c2.2.7,3.3,2.5,2.3,8.8v.7c-.1,0,.5.3.5.3.6.3,1.2.5,1.7.5,2.3,0,3.6-2.6,3.6-6.9s-3.8-7.9-10-7.9h0Z"/>
  </g>
</svg>