<?xml version="1.0" standalone="no"?>
<!DOCTYPE svg PUBLIC "-//W3C//DTD SVG 20010904//EN"
 "http://www.w3.org/TR/2001/REC-SVG-20010904/DTD/svg10.dtd">
<svg version="1.0" xmlns="http://www.w3.org/2000/svg"
 width="700.000000pt" height="700.000000pt" viewBox="0 0 700.000000 700.000000"
 preserveAspectRatio="xMidYMid meet">
<metadata>
Created by potrace 1.14, written by Peter Selinger 2001-2017
</metadata>
<g transform="translate(0.000000,700.000000) scale(0.100000,-0.100000)"
fill="#000000" stroke="none">
<path d="M1233 5840 c-87 -41 -149 -106 -168 -178 -62 -224 -160 -487 -375
-997 -405 -965 -558 -1455 -635 -2036 -72 -543 -7 -904 210 -1176 191 -239
452 -342 839 -331 249 7 432 52 981 242 313 108 379 113 418 30 19 -39 53 -58
127 -72 170 -32 325 81 361 262 20 99 -31 227 -124 313 -136 124 -319 181
-491 153 -38 -6 -148 -42 -245 -79 -526 -205 -969 -326 -1128 -307 -231 27
-367 290 -389 751 -8 153 10 322 58 540 108 498 382 1251 673 1851 120 248
199 385 260 454 64 72 78 104 83 191 12 201 -111 368 -290 394 -27 4 -48 11
-48 16 0 18 -57 8 -117 -21z"/>
<path d="M5599 5654 c-237 -42 -558 -189 -829 -377 -203 -141 -469 -383 -630
-572 -400 -471 -650 -1005 -741 -1585 -18 -114 -22 -193 -26 -508 -5 -372 7
-744 28 -858 11 -60 32 -104 49 -104 6 0 40 27 75 60 94 88 93 88 229 -70 177
-206 414 -338 711 -397 131 -26 449 -23 640 6 379 57 752 187 1090 379 135 77
277 173 334 226 78 74 96 114 95 211 0 87 -11 119 -66 181 -51 58 -120 87
-208 88 -75 1 -75 1 -139 -48 -171 -132 -498 -311 -715 -391 -240 -89 -467
-129 -685 -123 -128 4 -157 8 -230 33 -273 93 -464 340 -543 700 -29 132 -36
409 -14 535 35 198 108 412 222 650 246 509 585 922 973 1182 231 154 472 244
709 264 81 7 84 6 157 -30 115 -57 174 -140 210 -296 24 -107 23 -357 -4 -563
-30 -225 -32 -211 37 -246 136 -69 244 -77 346 -27 165 81 259 309 281 681 16
269 -60 485 -234 668 -95 100 -171 154 -302 217 -124 58 -240 93 -382 114
-127 19 -334 19 -438 0z"/>
</g>
</svg>
