<?xml version="1.0" encoding="UTF-8"?><svg id="Main" xmlns="http://www.w3.org/2000/svg" viewBox="0 0 300 60"><path d="M13.4,9.78c1.37,0,1.92,1.63,1.75,3.26-.05.48-.44.68-.6.95-2.03,3.13-8.05,20.38-8.05,27.99,0,5.78,1.53,9.51,4.38,9.51,3.56,0,10.02-3.94,11.44-3.94,1.09,0,1.92.68,2.46,1.22,1.75,1.83.11,4.42-1.37,3.67-.49-1.43-1.92-1.43-3.18-.88-.93.41-6.73,2.99-9.09,2.99-6.62,0-7.61-6.66-7.28-11.55.82-12.98,6.62-23.92,8.27-32.21.05-.27.82-1.02,1.26-1.02Z" style="fill:#fff; stroke-width:0px;"/><path d="M55.12,26.36c1.86-.27,4.6,1.9,4.6,3.33,0,.68-.38,1.63-.99,2.38-1.2-1.22-2.63-2.58-4.49-2.58-2.03,0-4.22,2.85-4.22,6.32,0,4.69,1.75,9.31,3.39,13.45.33.75.88,2.31.88,3.26s-.93,2.38-1.7,2.38-6.57-2.45-8.76-3.06c-.55-.14-.38-.82.05-1.16.49.2,3.89,1.09,6.19,1.16.71,0,.82,0,.66-.88-.55-3.13-2.79-8.97-3.39-14.47-5.75,5.1-11.11,14.54-14.51,19.64-1.09,1.09-5.64-1.43-4.49-3.74-.44-4.35,4.71-17.53,3.94-22.29.82-.95,1.92-.88,2.24-.41.33.48-.16,1.02.16,1.29.77.68.93,1.7,1.04,2.99.38,1.29-2.63,7.81-3.78,13.18-.55,2.51-.22,4.96,1.2,3.06,3.78-5.1,7.28-10.46,14.02-15.83v-.41c0-4.82,1.81-8.36,5.64-8.36.44,0,1.75-.07,2.3.75ZM36.12,13.52c.05-1.22,2.96-1.36,3.45-1.43.27.48,1.31,1.29,1.31,1.77s-.99,2.85-1.53,2.99c-1.26.34-3.28-1.56-3.23-3.33Z" style="fill:#fff; stroke-width:0px;"/><path d="M76.85,31.53c0,1.09-.82,2.38-1.15,2.38-1.04,0-1.37-1.7-1.97-1.7-1.75,0-7.39,10.33-7.39,16.31,0,1.16.11,2.79.55,2.79s1.59-2.11,2.14-2.38c.33-.07,3.56-5.98,4.6-9.31.05-2.51.6-3.67,1.31-3.67,1.15,0,2.63.82,2.63,1.22,0,.54.44,1.09.49,1.36.05.27.05,1.43.11,1.9.22,2.85,1.31,11.35,4.71,11.35,1.53,0,2.63-.61,3.01-.68.38-.07.88.61.88,1.29,0,.34-1.26,1.43-3.83,1.43-1.59,0-2.96-.41-3.61-1.63-1.75-.81-3.45-5.64-3.72-8.7-.05-.61-.49-.81-.88-.14-1.09,1.9-2.41,5.23-3.72,6.86-1.31,2.72-3.12,4.14-4.93,4.14s-2.9-1.43-2.9-5.16c0-6.18,5.75-20.25,10.95-20.25,1.42,0,2.74,1.7,2.74,2.58Z" style="fill:#fff; stroke-width:0px;"/><path d="M105.97,39.34c0,8.22,3.23,11.14,7.67,11.14,4.71,0,12.54-6.86,16.7-13.05,1.97-4.55,4.82-7.2,6.79-7.2,1.48,0,3.34.48,4.54,1.29.71.54,1.2,1.09,1.31,1.7.66-1.36,1.31-2.65,1.92-4.01.99-.88,2.96.54,3.34,1.02.38.48.33,1.43.05,2.11-.49,1.22-1.48,3.46-2.08,3.67-1.1,2.92-1.75,5.78-2.03,7.88-.71,5.37.27,6.66,3.61,4.48,3.67-2.38,10.62-8.97,13.63-13.59,1.42.07,1.42,1.63.27,2.99-3.29,3.94-11.55,12.57-15.77,14.88-1.86,1.02-5.58,1.15-5.2-5.57.16-2.72.99-5.71,1.59-8.29.11-.48-.11-.61-.27-.2-.27.61-4.65,8.7-7.5,12.57-2.68,3.67-7.01,2.24-6.51-4.08.05-1.02.22-2.99.71-4.28-3.94,4.76-9.47,10.67-15.93,10.67-6.95,0-9.85-7.61-9.85-13.38,0-15.97,11.66-26.36,17.9-26.36,5.2,0,7.83,3.53,7.83,7.27,0,4.28-1.1,8.09-3.61,6.39.93-7.27-.22-9.99-2.35-10.8-9.53,0-16.75,12.91-16.75,22.76ZM142,35.19h-.33c-.88,0-1.7-1.97-4.16-1.97-.66,0-1.64.54-2.3,1.36-2.24,2.79-3.78,7.41-4.16,12.37-.27,3.53.38,3.74,1.53,2.65,2.19-2.04,6.08-8.02,9.42-14.41Z" style="fill:#fff; stroke-width:0px;"/><path d="M161.37,29.01c0-.48.88-1.02,1.42-1.02s2.24,1.09,2.52,1.83c.55,1.49-1.75,7.54-2.85,12.03-.16.68.17.75.44.27,1.97-2.92,10.62-11.89,13.25-11.89,1.04,0,3.07,2.72,3.07,4.69s-1.31,3.06-2.52,2.79c-.88-.2-1.31-2.79-2.03-2.92-3.34.54-9.53,7.47-13.03,12.43-.55,1.29-1.26,4.89-1.97,6.18-.71-.14-1.26.82-1.59.75-.33-.07-1.64-1.36-1.31-2.38,1.75-5.1,4.76-14.54,5.09-21.34-.27-.07-.49-.95-.49-1.43Z" style="fill:#fff; stroke-width:0px;"/><path d="M201.39,22.35c1.64-5.44,3.23-10.12,3.94-12.43,1.2-3.19,2.14-6.86,3.18-6.86,1.2,0,1.64.88,1.59,2.38.27,0,.71.48,0,2.79-1.04,3.33-3.67,10.6-7.5,16.38-1.2,4.42-2.85,11.01-3.45,17.94-.77,8.56,1.7,11.35,5.8,8.97,3.56-2.04,7.06-7.41,7.06-7.75.22-.14.55-.2.77-.07.38.2.93,1.16.44,1.9-1.37,1.97-4.43,5.71-7.61,8.02-4.65,3.4-9.14,1.15-8.76-9.51.17-4.15,1.26-9.58,2.63-14.88-1.37,2.24-2.79,4.42-4.27,6.59.44,1.09.55,2.17.44,3.13-.05.48.33-.34.38.82.11,2.72-2.03,4.21-3.12,3.67-.55-.27-.66-.88-.71-1.63.27-.82.49-1.7.55-2.51-2.03,2.92-4.11,5.71-6.08,8.22-1.04,2.51-2.79,4.21-4.54,5.16-4.49,2.38-5.15-3.74-3.67-7.88,3.39-9.38,8.6-12.71,11.39-12.71,1.86,0,3.29.82,4.27,1.9,2.96-4.28,5.42-8.22,7.28-11.62ZM192.47,36.35c-.44-1.09-1.2-1.77-2.24-1.77-3.78,0-7.99,7.27-9.09,10.12-2.41,7,.49,5.57,4.43.68,2.46-3.06,4.82-6.12,6.9-9.04Z" style="fill:#fff; stroke-width:0px;"/><path d="M231.28,40.63c-.17.95-.27,1.83-.33,2.65-.66,6.39.55,11.28,4.05,10.26,5.26-1.56,7.66-4.55,11.93-9.38.71-.07,1.1.07,1.1.48s-.33,1.02-.93,1.77c-5.04,6.86-9.53,9.99-13.03,10.06-3.12.07-6.3-2.17-5.86-10.8,0-.54.05-1.09.11-1.7-5.04,5.5-10.13,9.78-13.41,11.48-1.97,1.16-3.94-.82-3.5-3.19-.88-4.01,5.15-19.43,3.72-23.03.82-.95,1.92-.88,2.25-.41.33.48-.17,1.02.16,1.29.77.68,1.04,1.83.93,3.47.11,2.92-3.23,10.06-4.38,15.42-.55,2.51-.27,4.08,1.26,3.6,3.94-2.51,8.87-6.59,13.41-11.82,1.75-10.12,6.79-25.89,11.55-32.14.71-2.45,2.35-3.4,3.07-3.4.77,0,2.19,2.51,2.19,3.67s.33,4.55-1.04,6.25c-.38,7.54-6.41,17.33-13.25,25.48ZM219.02,13.65c.05-1.29,3.17-1.77,3.72-1.83.38.48.77.95.77,1.43s-.33,3.4-1.04,3.53c-1.53.34-3.5-1.29-3.45-3.13ZM231.99,36.83c5.26-6.86,9.69-15.15,11.06-23.85.55-3.33-1.15-3.6-2.03-1.63-.33.54-.27.14-.66.82-2.79,4.62-6.46,15.76-8.38,24.67Z" style="fill:#fff; stroke-width:0px;"/><path d="M257.39,9.92c1.04.41,1.15,3.19-.27,4.14-1.31,3.53-2.46,9.04-4.11,9.1-2.3,7-4.38,16.51-4.87,23.85-.16,2.58-.22,5.78,2.19,5.03,3.39-1.09,10.46-9.51,14.24-15.22.71-.27.93.68.22,2.04-3.01,5.64-10.9,15.29-14.34,16.17-5.31,1.36-5.15-4.89-4.71-7.27-.11-8.15,6.62-30.58,9.42-38.05.6-.34,1.81-.54,2.24.2Z" style="fill:#fff; stroke-width:0px;"/><path d="M268.67,28.54c.44,0,.82.75,1.04,1.77,2.14.07,5.97,2.45,7.34,3.74,1.7,1.5,3.07,3.87,2.68,5.91-.38,2.11-6.73,10.12-9.53,12.84-1.81,1.7-3.78,2.24-5.48,1.63-3.78-1.36-3.5-6.39-3.01-9.31.55-3.6,3.39-8.22,3.39-14.88,0-1.36,2.57-1.7,3.56-1.7ZM269.33,34.31c-1.53,3.06-6.41,11.28-4.6,16.92.71,2.24,3.07.27,4.87-1.49,1.04-1.09,5.04-5.44,6.52-9.31.77-2.11.16-4.76-2.14-5.84-.99.07-3.23.41-4.65-.27Z" style="fill:#fff; stroke-width:0px;"/></svg>